<svg width="248px" height="64px" viewBox="0 0 248 64" version="1.1" xmlns="http://www.w3.org/2000/svg" xmlns:xlink="http://www.w3.org/1999/xlink">
  <g id="Page-1" stroke="none" stroke-width="1" fill="none" fill-rule="evenodd">
    <g id="imparato_logo-copie-01" fill="#111" fill-rule="nonzero">
      <path d="M3.744,6.973 C1.784,6.973 0.244,5.502 0.244,3.543 C0.244,1.512 1.784,0.111 3.744,0.111 C5.704,0.111 7.175,1.511 7.175,3.543 C7.175,5.502 5.704,6.973 3.744,6.973 Z M1.644,49.887 C1.084,49.887 0.804,49.608 0.804,49.117 L0.804,14.533 C0.804,14.043 1.084,13.693 1.644,13.693 L5.775,13.693 C6.265,13.693 6.546,14.043 6.546,14.533 L6.546,49.117 C6.546,49.607 6.266,49.887 5.775,49.887 L1.644,49.887 Z" id="Shape"></path>
      <path d="M48.196,12.924 C56.737,12.924 62.687,17.895 62.687,27.205 L62.687,49.117 C62.687,49.607 62.408,49.887 61.917,49.887 L57.786,49.887 C57.226,49.887 56.946,49.608 56.946,49.117 L56.946,27.064 C56.946,21.464 54.076,18.103 48.055,18.103 C45.115,18.103 42.454,19.013 40.354,20.484 C41.194,22.304 41.684,24.615 41.684,27.134 L41.684,49.116 C41.684,49.606 41.404,49.886 40.914,49.886 L36.713,49.886 C36.224,49.886 35.943,49.607 35.943,49.116 L35.943,27.064 C35.943,21.115 33.213,18.103 27.542,18.103 C24.672,18.103 22.432,18.664 20.472,19.363 L20.472,49.117 C20.472,49.607 20.192,49.887 19.632,49.887 L15.501,49.887 C15.011,49.887 14.731,49.608 14.731,49.117 L14.731,16.635 C14.731,16.215 14.871,15.864 15.361,15.655 C19.071,13.975 23.132,12.925 27.402,12.925 C31.672,12.925 34.963,14.185 37.413,16.355 C40.775,14.113 43.996,12.924 48.196,12.924 L48.196,12.924 Z" id="Path"></path>
      <path d="M83.264,12.924 C92.365,12.924 98.875,17.475 98.875,28.115 L98.875,35.816 C98.875,45.267 92.574,50.658 83.544,50.658 C80.323,50.658 77.243,49.818 74.862,48.486 L74.862,62.418 C74.862,62.908 74.583,63.189 74.022,63.189 L69.892,63.189 C69.402,63.189 69.121,62.908 69.121,62.418 L69.121,16.354 C69.121,15.934 69.261,15.584 69.682,15.444 C73.673,13.904 78.783,12.924 83.264,12.924 L83.264,12.924 Z M93.064,35.816 L93.064,28.115 C93.064,20.763 89.354,17.965 83.124,17.965 C80.113,17.965 77.033,18.455 74.862,19.363 L74.862,43.027 C77.102,44.566 79.973,45.547 83.193,45.547 C89.494,45.547 93.064,42.607 93.064,35.816 L93.064,35.816 Z" id="Shape"></path>
      <path d="M118.474,12.924 C127.084,12.924 132.405,17.475 132.405,26.506 L132.405,47.508 C132.405,47.928 132.195,48.278 131.775,48.418 C128.485,49.607 123.514,50.658 118.264,50.658 C110.423,50.658 103.212,47.508 103.212,39.176 C103.212,31.756 109.303,28.045 118.264,28.045 C121.134,28.045 124.285,28.465 126.664,28.885 L126.664,26.645 C126.664,20.975 124.353,18.104 118.264,18.104 C114.343,18.104 110.773,19.225 108.323,20.696 C107.903,20.975 107.552,20.905 107.273,20.485 L105.243,17.546 C105.033,17.124 104.963,16.845 105.243,16.566 C108.532,14.324 113.083,12.924 118.474,12.924 L118.474,12.924 Z M118.264,45.547 C121.414,45.547 124.564,44.916 126.664,44.287 L126.664,33.785 C124.424,33.365 121.134,32.945 118.264,32.945 C111.893,32.945 108.952,35.326 108.952,39.175 C108.952,43.377 112.873,45.547 118.264,45.547 L118.264,45.547 Z" id="Shape"></path>
      <path d="M139.471,49.887 C138.981,49.887 138.701,49.608 138.701,49.117 L138.701,16.424 C138.701,16.004 138.841,15.654 139.261,15.514 C142.761,13.834 147.102,12.924 151.233,12.924 C153.543,12.924 155.923,13.133 158.443,13.485 C158.933,13.553 159.143,13.905 159.143,14.395 L159.143,17.825 C159.143,18.386 158.864,18.665 158.303,18.524 C156.343,18.245 154.103,18.034 152.002,18.034 C149.132,18.034 146.331,18.665 144.441,19.434 L144.441,49.118 C144.441,49.608 144.161,49.888 143.601,49.888 L139.471,49.888 L139.471,49.887 Z" id="Path"></path>
      <path d="M176.293,12.924 C184.903,12.924 190.224,17.475 190.224,26.506 L190.224,47.508 C190.224,47.928 190.014,48.278 189.594,48.418 C186.304,49.607 181.333,50.658 176.083,50.658 C168.242,50.658 161.031,47.508 161.031,39.176 C161.031,31.756 167.122,28.045 176.083,28.045 C178.953,28.045 182.104,28.465 184.483,28.885 L184.483,26.645 C184.483,20.975 182.172,18.104 176.083,18.104 C172.162,18.104 168.592,19.225 166.142,20.696 C165.722,20.975 165.371,20.905 165.092,20.485 L163.062,17.546 C162.852,17.124 162.782,16.845 163.062,16.566 C166.352,14.324 170.902,12.924 176.293,12.924 L176.293,12.924 Z M176.083,45.547 C179.233,45.547 182.383,44.916 184.483,44.287 L184.483,33.785 C182.243,33.365 178.953,32.945 176.083,32.945 C169.712,32.945 166.771,35.326 166.771,39.175 C166.771,43.377 170.692,45.547 176.083,45.547 L176.083,45.547 Z" id="Shape"></path>
      <path d="M208.842,45.338 C209.613,45.338 210.943,45.268 212.202,45.197 C212.763,45.197 213.042,45.476 213.042,45.967 L213.042,49.678 C213.042,50.098 212.832,50.448 212.342,50.518 C211.082,50.588 209.472,50.659 208.562,50.659 C201.562,50.659 196.381,46.878 196.381,38.266 L196.381,5.643 C196.381,5.082 196.66,4.803 197.221,4.803 L200.862,4.803 C201.282,4.803 201.562,5.082 201.632,5.573 L202.122,14.044 L211.223,14.044 C211.713,14.044 211.994,14.325 211.994,14.815 L211.994,18.315 C211.994,18.876 211.714,19.155 211.223,19.155 L202.122,19.155 L202.122,37.987 C202.121,42.607 204.501,45.338 208.842,45.338 L208.842,45.338 Z" id="Path"></path>
      <path d="M232.082,50.658 C222.631,50.658 216.681,45.127 216.681,36.935 L216.681,26.855 C216.681,18.664 222.631,12.923 232.082,12.923 C241.603,12.923 247.484,18.663 247.484,26.855 L247.484,36.935 C247.484,45.127 241.604,50.658 232.082,50.658 Z M232.082,45.547 C238.383,45.547 241.743,42.188 241.743,36.936 L241.743,26.856 C241.743,21.536 238.383,18.104 232.082,18.104 C225.852,18.104 222.491,21.536 222.491,26.856 L222.491,36.936 C222.491,42.188 225.852,45.547 232.082,45.547 Z" id="Shape"></path>
    </g>
  </g>
</svg>
